PathFileType	4	(X/Y/Z)	D:\TRACE\spotREDO_2-26-24\spot_justBody_Motion_1_1-v60.trc
DataRate	CameraRate	NumFrames	NumMarkers	Units	OrigDataRate	OrigDataStartFrame	OrigNumFrames
100.00	100.00	      42	9	mm	100.00	3501	      7000
Frame#	Time	front left toe			Front right toe			aft left toe			aft right toe			Arm			FL body			FR body			AL Body			AR Body			
		X1	Y1	Z1	X2	Y2	Z2	X3	Y3	Z3	X4	Y4	Z4	X5	Y5	Z5	X6	Y6	Z6	X7	Y7	Z7	X8	Y8	Z8	X9	Y9	Z9	

3501	35.000	-236.01736	14.39395	-99.02615	277.25345	21.80657	-197.04008	-228.05048	31.33652	367.50427	294.38568	138.64066	300.56250	-53.31991	808.69446	-346.21298	-138.01343	550.74823	-311.67065	17.43641	552.74945	-330.01572	-45.66054	566.82910	567.14740	103.22700	563.73785	552.21362	
3502	35.010	-236.29243	14.38248	-99.02030	277.40152	22.26052	-197.16232	-228.32190	31.37276	367.44946	291.88004	129.89374	298.94943	-53.31010	808.88892	-346.53482	-138.01794	550.93536	-311.91464	17.38684	552.90192	-330.29294	-44.79568	566.75049	567.04150	103.51698	563.81427	551.90326	
3503	35.020	-236.70737	14.40710	-99.09384	277.06720	22.10380	-197.19432	-228.71013	31.51197	367.49890	289.53818	119.84777	297.51208	-53.13050	809.17639	-346.80362	-138.48730	551.50946	-312.72412	17.36802	553.02014	-330.52155	-45.05897	567.07629	566.39355	103.57591	563.79510	551.50665	
3504	35.030	-237.04800	14.40108	-99.07542	276.53534	21.79539	-197.48973	-229.13821	31.63469	367.49164	287.12497	108.40996	296.72940	-52.68171	809.51550	-346.99536	-138.47878	552.08264	-312.96567	17.34821	553.13037	-330.68484	-44.63899	566.89557	566.40442	103.73955	563.46631	551.39575	
3505	35.040	-237.33072	14.45257	-99.14659	275.87033	21.50338	-197.47124	-229.61012	31.76112	367.50235	284.29602	96.32767	296.25977	-52.10917	809.62756	-347.09750	-138.02057	552.06165	-312.47723	17.30826	553.19537	-330.87726	-44.28243	566.85358	566.25366	104.02425	563.23944	551.19751	
3506	35.050	-237.85550	14.58127	-99.32795	275.26660	21.46839	-197.48615	-229.80038	31.69917	367.44595	282.40692	85.40616	296.55026	-51.86267	809.65869	-347.15607	-137.99248	552.15070	-312.65692	17.26343	553.20551	-331.05600	-44.09444	566.79968	566.12799	104.21972	563.05206	550.98621	
3507	35.060	-238.33330	14.65592	-99.50636	274.87936	21.32808	-197.53140	-230.22241	31.83212	367.37573	280.73541	74.94713	297.02051	-51.82114	809.68109	-347.29309	-138.05019	552.20795	-312.78336	17.22793	553.14636	-331.28052	-43.39546	566.31732	565.87280	104.31239	562.98871	550.83008	
3508	35.070	-238.64095	14.68393	-99.56718	274.74283	21.13756	-197.54694	-230.61229	32.17323	367.21066	279.10992	64.18951	296.63095	-51.86443	809.56647	-347.45105	-137.98747	552.10211	-312.80063	17.35722	553.07074	-331.33960	-43.82213	566.92920	565.96405	104.34245	563.05469	550.70648	
3509	35.080	-239.19957	14.61440	-100.03976	274.62473	21.00534	-197.47722	-230.97423	32.43583	367.14050	279.03024	54.27271	296.64224	-51.88542	809.42554	-347.61847	-137.76765	551.90533	-312.86279	17.52945	553.02612	-331.38364	-43.68886	567.05878	565.93835	104.40530	563.34253	550.55554	
3510	35.090	-239.43657	14.52824	-99.62729	273.83008	20.20361	-197.42738	-231.65144	32.95295	366.88535	278.78796	44.03096	296.37756	-51.83953	809.34625	-347.67194	-137.62445	551.86145	-312.91757	17.67501	552.94928	-331.36279	-43.60063	567.26123	565.85669	104.72744	563.59827	550.50891	
3511	35.100	-239.83910	14.48824	-99.67315	273.51367	20.65124	-197.68224	-232.04301	33.12787	366.79263	278.51401	37.91737	293.87204	-51.72643	809.32263	-347.68607	-137.58936	551.84546	-312.84525	17.72542	552.88702	-331.36862	-43.50232	567.42255	565.87769	105.06922	563.54816	550.55762	
3512	35.110	-240.23473	14.42764	-99.67956	273.44119	20.07468	-197.55176	-232.02037	33.23359	366.71890	278.95361	37.06396	293.71790	-51.28466	809.20551	-347.58438	-137.24667	551.40588	-312.97736	18.16881	552.68610	-331.24426	-43.80080	568.16211	565.82977	104.65314	564.59344	550.80536	
3513	35.120	-240.65941	13.38343	-100.23471	273.31863	20.27860	-197.36270	-232.10126	34.25351	366.76929	280.51389	38.19016	295.34125	-51.48935	808.94659	-347.88324	-136.60072	550.17407	-312.55792	18.62249	552.07526	-330.92807	-44.65825	569.64838	566.10205	103.76180	566.80408	551.32031	
3514	35.130	-241.31569	13.45633	-100.21600	272.39069	20.38572	-197.87000	-232.87718	33.97652	366.72971	278.64774	38.66964	295.05832	-52.31435	808.05219	-348.17776	-136.52504	550.02771	-312.60760	19.14063	551.94995	-330.67258	-45.24755	570.64374	566.47089	103.13419	567.95447	551.61212	
3515	35.140	-241.90039	13.66286	-100.38364	271.25455	20.32466	-197.41945	-233.86295	33.93631	366.83649	277.86014	39.04744	295.12634	-52.22596	807.39215	-348.40414	-136.27368	550.23462	-312.45230	19.24328	551.94525	-330.39813	-45.85552	571.40283	566.73132	102.34299	568.55237	551.90240	
3516	35.150	-242.47899	13.92129	-100.47525	270.87393	20.18999	-197.35449	-234.43726	34.04259	366.60928	277.30875	39.18739	295.13516	-51.35777	807.35315	-348.68732	-135.96529	550.28882	-312.15189	19.62760	551.97522	-329.90533	-46.48307	571.92621	566.82001	101.92883	569.11127	552.44928	
3517	35.160	-242.99452	13.88698	-100.55156	270.55524	19.99277	-197.17184	-234.89757	34.28284	366.48053	276.81662	39.15137	294.96237	-50.44049	807.83301	-348.41888	-136.04131	550.37598	-312.32431	19.73334	552.09821	-329.55487	-47.09702	572.16034	567.08801	101.12035	569.41260	552.79651	
3518	35.170	-243.41769	13.85761	-100.71098	270.04221	19.71294	-197.28174	-235.48549	34.34039	366.30969	276.12137	39.09775	294.97412	-49.98164	808.00500	-347.46945	-135.86124	550.50031	-312.22223	19.80413	552.26959	-329.31628	-47.61947	572.25305	567.50641	100.77692	569.44165	553.10242	
3519	35.180	-243.66196	13.74298	-100.71111	270.07465	20.20329	-197.38969	-236.05049	34.40455	366.22382	275.58325	39.05008	294.90613	-50.18271	808.20459	-347.17365	-135.90152	550.90186	-312.07388	19.90430	552.34479	-328.96884	-47.74894	572.08063	567.85095	100.48443	569.34033	553.45154	
3520	35.190	-244.03835	13.67387	-100.74538	269.58264	19.99903	-197.40103	-236.74205	34.59229	366.15512	275.35410	39.17706	295.00696	-50.15603	808.30176	-346.93280	-135.22563	550.53864	-311.06247	19.93719	552.47095	-328.60025	-47.85595	571.96771	568.18561	100.63552	569.22699	553.82050	
3521	35.200	-244.80595	13.80842	-100.69501	268.86978	19.84155	-197.57169	-237.29001	34.75888	366.12140	274.83365	39.11510	295.04382	-50.33388	808.21948	-346.68268	-135.65744	550.75983	-310.91025	19.79376	552.56268	-328.26056	-47.90799	571.90833	568.55774	100.45420	569.22571	554.41809	
3522	35.210	-245.73099	13.70930	-100.75451	268.40152	19.66654	-197.53995	-237.61169	34.89510	366.10428	274.18311	38.99081	294.88760	-50.73419	808.14008	-346.32529	-135.66339	550.54089	-310.44150	19.66128	552.52759	-327.94305	-48.00834	571.81421	568.79761	100.36108	569.15717	554.73010	
3523	35.220	-246.20734	13.67674	-100.70216	267.69296	19.55442	-197.61690	-238.04645	35.14125	366.06622	273.44266	38.84723	294.74161	-51.16595	808.10541	-345.84702	-135.82169	550.32831	-309.94577	19.61760	552.45129	-327.47974	-47.89434	571.74408	569.29504	100.37138	569.22479	555.13458	
3524	35.230	-246.74628	13.67117	-100.77118	266.92053	19.48816	-197.51088	-238.68280	35.33051	366.07941	273.10922	39.01197	294.79379	-51.43784	808.00006	-345.47165	-135.84602	550.14026	-309.53745	19.40099	552.33612	-327.04822	-47.81041	571.95294	569.82031	100.45895	569.21588	555.37457	
3525	35.240	-247.48376	13.84301	-100.73468	266.60388	19.49776	-197.55205	-239.44563	35.69091	366.08051	272.65631	39.12685	294.74637	-51.57386	807.92480	-345.09763	-136.22144	550.08960	-309.01334	19.15554	552.24396	-326.66461	-47.68762	572.07288	570.21674	100.54188	569.41144	555.80090	
3526	35.250	-247.98482	13.73429	-100.61977	265.43875	19.02228	-197.50189	-240.11679	35.63290	366.12384	271.78625	39.17267	294.80121	-51.90963	807.72668	-344.64383	-136.24921	549.85956	-308.43491	19.04633	552.07813	-326.17697	-47.92425	572.23059	570.50714	100.68976	569.68884	556.30884	
3527	35.260	-248.74286	13.55110	-100.55367	265.15710	19.41261	-197.48897	-240.41263	35.68183	366.17014	271.00629	39.20556	294.81891	-52.18372	807.54926	-344.11996	-136.38806	549.65643	-307.80603	18.80744	551.80219	-325.65247	-47.87550	572.29694	571.08026	100.51978	569.84894	556.77612	
3528	35.270	-249.46713	13.47498	-100.43298	264.44995	19.31934	-197.35971	-241.42735	36.01874	365.98648	270.59485	39.27502	294.81464	-52.52671	807.50061	-343.68182	-136.88330	549.62646	-307.57272	18.55274	551.76959	-325.24515	-47.99588	572.43146	571.77032	100.10727	570.19519	557.27161	
3529	35.280	-249.84126	13.34835	-100.55636	263.19122	18.91754	-197.52440	-242.09026	36.13612	365.86746	270.00629	39.24407	294.68060	-52.84065	807.48450	-343.33130	-137.17296	549.55914	-307.14600	18.11819	551.69604	-324.61789	-48.16516	572.58087	572.27954	100.20017	570.45050	557.79053	
3530	35.290	-250.55170	13.51337	-100.72771	262.69043	18.89337	-197.50702	-242.63261	36.26810	365.84204	269.10474	39.34589	294.68994	-53.34848	807.32104	-342.73782	-137.30528	549.24353	-306.51508	17.97731	551.55896	-324.16928	-48.50188	572.85815	572.67010	100.08926	570.73669	558.27271	
3531	35.300	-251.38364	13.70113	-100.70319	262.11163	18.71218	-197.56392	-243.31223	36.27608	365.89349	268.34189	39.57476	294.78229	-53.73205	807.17822	-342.34055	-137.70862	549.19623	-306.29660	17.87493	551.51917	-323.54272	-48.58437	573.01239	573.25665	100.02835	571.03516	558.89484	
3532	35.310	-252.18715	13.85457	-100.72335	261.89755	19.14879	-197.54407	-244.17966	36.35622	366.05490	267.81198	39.51585	294.82672	-54.17636	807.07062	-341.96585	-137.78101	548.90283	-305.22003	17.57492	551.49359	-323.00247	-48.77360	573.21393	573.87732	99.70907	571.20508	559.41644	
3533	35.320	-252.91342	13.56931	-100.67508	261.29904	18.92757	-197.62253	-244.85016	36.29616	366.02933	267.07520	39.61876	294.82346	-54.55716	806.90021	-341.44183	-138.02415	548.77954	-304.60611	17.30345	551.56592	-322.33752	-48.83123	573.15771	574.35614	99.50397	571.28979	559.89288	
3534	35.330	-253.69746	13.72145	-100.75999	260.19528	19.03973	-197.53168	-245.21895	36.27694	366.02704	266.24347	39.68570	294.99951	-54.79843	806.89825	-340.60202	-138.14182	548.71710	-304.13336	17.08863	551.58728	-321.85416	-48.95261	573.21606	575.03802	99.46228	571.40204	560.46918	
3535	35.340	-254.22688	13.74508	-100.68223	259.63254	18.75916	-197.49017	-246.06801	36.45974	366.18710	265.66254	39.58133	295.02875	-54.85075	806.76825	-339.95511	-138.44681	548.78766	-303.58514	16.99762	551.47125	-321.25278	-48.05853	572.74799	575.49951	99.37437	571.52271	561.24481	
3536	35.350	-255.00723	13.77985	-100.55223	258.92755	18.69584	-197.53596	-246.88658	36.47812	366.27167	265.00037	39.50808	294.82196	-55.44020	806.80542	-339.35464	-138.89568	548.74542	-302.76776	16.77031	551.47919	-320.40930	-48.16304	572.70135	575.97687	99.23302	571.66522	561.63190	
3537	35.360	-255.68900	13.82530	-100.42564	258.18625	18.55858	-197.34589	-247.51256	36.58116	366.14175	264.27560	39.58443	294.87717	-55.77976	806.70667	-338.87866	-138.93831	548.58441	-302.08240	16.44383	551.54395	-319.88760	-48.35236	572.79565	576.69885	99.13618	571.63617	562.19458	
3538	35.370	-256.53091	13.75074	-100.50996	257.07391	17.95148	-197.48683	-248.44850	36.77996	366.02145	263.22922	39.67944	295.00168	-56.12112	806.66522	-338.30179	-139.01842	548.46173	-301.55991	16.23648	551.44470	-319.29144	-48.76988	572.82648	577.42670	99.01247	571.75433	563.11084	
3539	35.380	-257.43393	13.86352	-100.66021	256.68518	18.86142	-197.40646	-249.32953	36.83665	365.84738	262.59052	39.60435	294.93765	-56.72022	806.58435	-337.69946	-139.50389	548.35242	-300.80835	15.94093	551.38788	-318.75732	-49.08484	572.84857	578.00378	98.72937	571.89325	563.49213	
3540	35.390	-258.18863	13.92297	-100.67329	255.67934	18.78216	-197.11472	-249.82018	36.95377	365.83524	262.08157	39.69378	294.82748	-56.97934	806.56976	-337.03912	-140.02293	548.25519	-300.53076	15.57374	551.40613	-318.13348	-49.13229	572.83734	578.57501	98.36285	572.03461	563.79675	
3541	35.400	-258.74158	13.81311	-100.56783	254.32333	18.08976	-197.47823	-250.62589	36.99921	365.94531	260.94110	39.57079	294.71387	-57.21225	806.46210	-336.50302	-139.83189	548.01489	-299.59552	15.36705	551.23938	-317.39255	-49.19494	572.86786	579.30688	98.40804	572.03046	564.79340	
3542	35.410	-259.66650	14.06051	-100.37286	253.92867	17.92004	-197.32722	-251.68135	37.06350	365.87143	260.20172	39.58631	294.81396	-57.63671	806.25171	-335.75616	-140.27432	547.86292	-298.96707	15.25566	551.12811	-316.80481	-49.31200	572.81250	579.90863	98.30675	572.20459	565.53534	
